<svg width="56" height="19" viewBox="0 0 56 19" fill="none" xmlns="http://www.w3.org/2000/svg">
<path d="M0.628906 18V1.08984H4.16797V18H0.628906Z" fill="white"/>
<path d="M14.7734 18.3164C13.5156 18.3164 12.3828 18.1172 11.375 17.7188C10.375 17.3203 9.52344 16.7422 8.82031 15.9844C8.11719 15.2188 7.57812 14.293 7.20312 13.207C6.82812 12.1133 6.64062 10.8789 6.64062 9.50391V9.49219C6.64062 7.67969 6.96875 6.125 7.625 4.82812C8.28125 3.52344 9.21094 2.52344 10.4141 1.82812C11.625 1.125 13.0547 0.773438 14.7031 0.773438C16.0547 0.773438 17.25 1.01562 18.2891 1.5C19.3359 1.97656 20.1875 2.63281 20.8438 3.46875C21.5 4.30469 21.918 5.26172 22.0977 6.33984L22.1328 6.50391H18.582L18.5469 6.375C18.2734 5.55469 17.8047 4.91797 17.1406 4.46484C16.4844 4.00391 15.6758 3.77344 14.7148 3.77344C13.7852 3.77344 12.9883 4 12.3242 4.45312C11.6602 4.89844 11.1484 5.54688 10.7891 6.39844C10.4297 7.24219 10.25 8.26172 10.25 9.45703V9.46875C10.25 10.3828 10.3555 11.2031 10.5664 11.9297C10.7852 12.6484 11.0938 13.2617 11.4922 13.7695C11.8906 14.2695 12.3711 14.6523 12.9336 14.918C13.5039 15.1836 14.1406 15.3164 14.8438 15.3164C15.6094 15.3164 16.2852 15.1758 16.8711 14.8945C17.4648 14.6055 17.9297 14.1992 18.2656 13.6758C18.6094 13.1523 18.7969 12.543 18.8281 11.8477L18.8398 11.5898H15.0078V8.96484H22.2852V10.9453C22.2852 12.0859 22.1133 13.1133 21.7695 14.0273C21.4336 14.9336 20.9414 15.707 20.293 16.3477C19.6445 16.9883 18.8555 17.4766 17.9258 17.8125C16.9961 18.1484 15.9453 18.3164 14.7734 18.3164Z" fill="white"/>
<path d="M24.8164 18V1.08984H31.3086C32.9961 1.08984 34.4375 1.41797 35.6328 2.07422C36.8359 2.72266 37.7539 3.66797 38.3867 4.91016C39.0273 6.15234 39.3477 7.66406 39.3477 9.44531V9.46875C39.3477 11.2656 39.0273 12.8008 38.3867 14.0742C37.7539 15.3477 36.8398 16.3203 35.6445 16.9922C34.4492 17.6641 33.0039 18 31.3086 18H24.8164ZM28.3555 15.082H30.8633C31.918 15.082 32.8047 14.8711 33.5234 14.4492C34.25 14.0195 34.8008 13.3906 35.1758 12.5625C35.5508 11.7344 35.7383 10.7109 35.7383 9.49219V9.46875C35.7383 8.29688 35.5469 7.30469 35.1641 6.49219C34.7812 5.67969 34.2266 5.0625 33.5 4.64062C32.7734 4.21875 31.8945 4.00781 30.8633 4.00781H28.3555V15.082Z" fill="white"/>
<path d="M43.6016 18V15.3633H48.4297C49.4453 15.3633 50.2227 15.1602 50.7617 14.7539C51.3008 14.3398 51.5703 13.7383 51.5703 12.9492V12.9258C51.5703 12.4102 51.4453 11.9766 51.1953 11.625C50.9531 11.2656 50.5859 10.9961 50.0938 10.8164C49.6094 10.6289 49.0078 10.5352 48.2891 10.5352H43.6016V8.14453H47.8789C48.8633 8.14453 49.6133 7.94922 50.1289 7.55859C50.6523 7.16016 50.9141 6.59766 50.9141 5.87109V5.84766C50.9141 5.17578 50.6836 4.65234 50.2227 4.27734C49.7617 3.90234 49.1172 3.71484 48.2891 3.71484H43.6016V1.08984H49.2031C50.2734 1.08984 51.1953 1.26172 51.9688 1.60547C52.7422 1.94922 53.3398 2.4375 53.7617 3.07031C54.1836 3.70312 54.3945 4.45312 54.3945 5.32031V5.34375C54.3945 5.96094 54.2539 6.53516 53.9727 7.06641C53.6914 7.58984 53.3047 8.02734 52.8125 8.37891C52.3281 8.72266 51.7773 8.9375 51.1602 9.02344V9.11719C51.9414 9.17188 52.6328 9.38281 53.2344 9.75C53.8438 10.1094 54.3203 10.5859 54.6641 11.1797C55.0156 11.7656 55.1914 12.4258 55.1914 13.1602V13.1836C55.1914 14.168 54.9531 15.0195 54.4766 15.7383C54 16.457 53.3242 17.0156 52.4492 17.4141C51.582 17.8047 50.5469 18 49.3438 18H43.6016ZM41.832 18V1.08984H45.3711V18H41.832Z" fill="white"/>
</svg>
